<?xml version="1.0" encoding="utf-8"?>
<!-- Generator: Adobe Illustrator 21.0.0, SVG Export Plug-In . SVG Version: 6.00 Build 0)  -->
<svg version="1.1" id="图层_1" xmlns="http://www.w3.org/2000/svg" xmlns:xlink="http://www.w3.org/1999/xlink" x="0px" y="0px"
	 viewBox="0 0 200 200" style="enable-background:new 0 0 200 200;" xml:space="preserve">
<style type="text/css">
	.st0{fill:#FFFFFF;}
</style>
<path class="st0" d="M100,3C58.7,3,25.3,37.2,25.3,79.2c0,40.5,66.9,112.5,69.8,115.6c1.3,1.4,3.1,2.2,4.9,2.2h0.2
	c1.9,0,3.7-0.9,4.9-2.4l23.2-27.1c30.7-38.5,46.4-68.1,46.4-88.3C174.7,37.2,141.2,3,100,3z M100,113.9C81.2,113.9,66,98.4,66,79.3
	S81.2,44.7,100,44.7s33.9,15.5,33.9,34.6S118.8,113.9,100,113.9z"/>
</svg>
