<?xml version="1.0" encoding="utf-8"?>
<!-- Generator: Adobe Illustrator 21.0.0, SVG Export Plug-In . SVG Version: 6.00 Build 0)  -->
<svg version="1.1" id="图层_1" xmlns="http://www.w3.org/2000/svg" xmlns:xlink="http://www.w3.org/1999/xlink" x="0px" y="0px"
	 viewBox="0 0 200 200" style="enable-background:new 0 0 200 200;" xml:space="preserve">
<style type="text/css">
	.st0{fill:#FFFFFF;}
</style>
<path class="st0" d="M100.2,58.2c6.9,0.1,13.5-3.1,17.7-8.5c3.7-5,3.7-11.8,0-16.8L100.2,8L82.6,32.8c-3.7,5-3.7,11.8,0,16.8
	C86.7,55.2,93.3,58.3,100.2,58.2z M147,141.5l-11.1-8.9l-11.1,8.9c-14.9,10.9-35,10.9-49.9,0l-11.1-8.9l-11.1,8.9
	c-7,5.6-15.8,8.7-24.8,8.5c-7,0-13.9-1.8-20-5.1v38.6c0.5,5.1,5.1,8.9,10.2,8.4h163.5c5.1,0.5,9.7-3.3,10.2-8.4V145
	c-6.1,3.4-13,5.1-20,5.1C163,150.2,154.2,147.1,147,141.5L147,141.5z M161.3,83.1h-51V66.4H89.9v16.8h-51
	C23.6,81.8,9.9,93,8.3,108.3v13.1c1.1,9.9,9.9,17.3,20,16.4c5.2,0,10.2-1.8,14.1-5.1l21.8-17.8l21.8,17.8c8.4,6.1,19.9,6.1,28.3,0
	l21.8-17.8l21.8,17.8c4.1,3.2,9,5,14.1,4.8c10.1,0.9,19.1-6.5,20.1-16.5v-13.1c-1.9-15.1-15.4-26-30.7-24.7V83.1L161.3,83.1z"/>
</svg>
