<?xml version="1.0" encoding="utf-8"?>
<!-- Generator: Adobe Illustrator 21.0.0, SVG Export Plug-In . SVG Version: 6.00 Build 0)  -->
<svg version="1.1" id="图层_1" xmlns="http://www.w3.org/2000/svg" xmlns:xlink="http://www.w3.org/1999/xlink" x="0px" y="0px"
	 viewBox="0 0 200 200" style="enable-background:new 0 0 200 200;" xml:space="preserve">
<style type="text/css">
	.st0{fill:#FFFFFF;}
</style>
<path class="st0" d="M158.8,105.3v39.1c0,1-0.5,1.8-1.4,2.3l-56.8,27.6c-2.9,1.7-6.4,1.7-9.2,0l-56.8-27.6c-0.8-0.5-1.4-1.3-1.4-2.3
	v-40.3c0-1.4,1.1-2.5,2.5-2.5c0.4,0,0.7,0.1,1.1,0.2l54.9,24.6c2.7,1.5,6.1,1.5,8.8,0l54.9-23.4c1.3-0.5,2.8,0.1,3.3,1.4
	C158.8,104.6,158.8,105,158.8,105.3L158.8,105.3z M196.6,121.2c0,2.7-3.3,6.7-7.4,6.7c-4.1,0-7.4-3.9-7.4-6.7V75l-79.7,36.7
	c-1.1,0.5-4.8,1.7-8.8,0L5.6,71.4c-1.7-0.7-2.6-2.7-1.9-4.5C4.1,66,4.7,65.3,5.6,65l87-39.5c2.5-1.3,9.4-1.4,12.7,0l89.9,42
	c0.9,0.5,1.4,1.3,1.4,2.3L196.6,121.2L196.6,121.2z"/>
</svg>
