<?xml version="1.0" encoding="utf-8"?>
<!-- Generator: Adobe Illustrator 21.0.0, SVG Export Plug-In . SVG Version: 6.00 Build 0)  -->
<svg version="1.1" id="图层_1" xmlns="http://www.w3.org/2000/svg" xmlns:xlink="http://www.w3.org/1999/xlink" x="0px" y="0px"
	 viewBox="0 0 200 200" style="enable-background:new 0 0 200 200;" xml:space="preserve">
<style type="text/css">
	.st0{fill:#FFFFFF;}
</style>
<path class="st0" d="M162.3,115.9c0-17-5.4-33.2-15.3-46.6L171.3,45v18.9c0,3,1.2,5.9,3.4,8.1c2.1,2.1,5,3.4,8.1,3.4
	c6.3,0,11.4-5.2,11.4-11.4V18.3c0-0.3,0-0.6,0-0.9c0-3.1-1.3-6.1-3.4-8.1c-2-2.1-4.9-3.4-8.1-3.4c-0.3,0-0.7,0-0.9,0h-45.6
	c-6.3,0-11.4,5.2-11.4,11.4c0,3.1,1.2,6.1,3.4,8.1c2.1,2.1,5,3.4,8.1,3.4h18.9l-24.3,24.3c-13.4-10-29.6-15.3-46.6-15.3
	C63.4,37.8,43.6,46,29,60.7C14.1,75.4,5.9,95,5.9,115.9c0,20.8,8.2,40.6,22.9,55.2C43.5,185.9,63.1,194,84,194s40.6-8.2,55.2-22.9
	C154.1,156.4,162.3,136.7,162.3,115.9L162.3,115.9z M84.1,171.1c-14.8,0-28.7-5.7-39.1-16.2c-10.4-10.4-16.2-24.3-16.2-39.1
	c0-14.8,5.7-28.7,16.2-39.1c10.4-10.4,24.3-16.2,39.1-16.2s28.7,5.7,39.1,16.2c10.4,10.4,16.2,24.3,16.2,39.1s-5.7,28.7-16.2,39.1
	C112.8,165.4,98.9,171.1,84.1,171.1z"/>
</svg>
