<?xml version="1.0" encoding="utf-8"?>
<!-- Generator: Adobe Illustrator 21.0.0, SVG Export Plug-In . SVG Version: 6.00 Build 0)  -->
<svg version="1.1" id="图层_1" xmlns="http://www.w3.org/2000/svg" xmlns:xlink="http://www.w3.org/1999/xlink" x="0px" y="0px"
	 viewBox="0 0 200 200" style="enable-background:new 0 0 200 200;" xml:space="preserve">
<style type="text/css">
	.st0{fill:#FFFFFF;}
</style>
<g>
	<path class="st0" d="M13.9,66.9L13.9,66.9l83.2,48.2c0.8,0.5,1.8,0.7,2.7,0.7c1,0,2-0.3,2.8-0.7l82.7-47.7c2.6-1.5,3.6-4.9,2-7.5
		c-0.5-0.8-1.2-1.6-2.1-2.1L103.1,10c-0.8-0.5-1.8-0.7-2.7-0.7c-1.1,0-2.2,0.3-3.1,0.9L14.7,57.9c-2.6,1.5-3.6,4.9-2.1,7.5
		C13,66,13.5,66.5,13.9,66.9z"/>
	<polygon class="st0" points="100.2,21.1 171.7,62.5 99.9,104 28.3,62.6 	"/>
	<path class="st0" d="M185.4,93.4l-15.5-9L159,90.7l12.8,7.4l-71.7,41.4L28.3,98.2l12.8-7.4l-10.9-6.4l-15.5,9
		c-2.6,1.5-3.6,4.9-2.1,7.5c0.4,0.6,0.8,1.1,1.3,1.6v0.1l83.2,48.1c0.8,0.5,1.8,0.7,2.7,0.7c1,0,2-0.3,2.8-0.7l82.7-47.7
		c2.6-1.5,3.6-4.9,2-7.5C186.9,94.6,186.3,93.8,185.4,93.4z"/>
	<path class="st0" d="M185.3,132.7l-15.4-9l-10.9,6.4l12.7,7.4L100,178.9l-71.6-41.3l12.8-7.4l-10.9-6.4l-15.5,9
		c-2.6,1.5-3.6,4.9-2.1,7.5c0.4,0.6,0.7,1.1,1.3,1.6v0.1l83.2,48c0.8,0.5,1.8,0.7,2.7,0.7c1,0,2-0.3,2.8-0.7l82.7-47.7
		c2.6-1.5,3.6-4.9,2-7.5C186.8,133.8,186.2,133.2,185.3,132.7z"/>
</g>
</svg>
