<?xml version="1.0" standalone="no"?><!DOCTYPE svg PUBLIC "-//W3C//DTD SVG 1.1//EN" "http://www.w3.org/Graphics/SVG/1.1/DTD/svg11.dtd"><svg t="1525702508548" class="icon" style="" viewBox="0 0 1024 1024" version="1.1" xmlns="http://www.w3.org/2000/svg" p-id="2827" xmlns:xlink="http://www.w3.org/1999/xlink" width="200" height="200"><defs><style type="text/css"></style></defs><path d="M958.06439 683.332683c-20.729756-124.503415-107.52-206.04878-107.52-206.048781 12.362927-113.014634-33.092683-132.995122-33.092683-132.995122C807.836098-5.369756 517.494634 0.749268 511.500488 0.999024c-6.119024-0.124878-296.460488-6.243902-305.95122 343.289756 0 0-45.580488 20.105366-33.092683 132.995122 0 0-86.915122 81.545366-107.52 206.048781 0 0-10.989268 210.294634 99.278049 25.724878 0 0 24.850732 70.056585 70.306342 132.995122 0 0-81.420488 28.597073-74.427317 103.02439 0 0-2.747317 82.919024 173.830243 77.299512 0 0 124.12878-9.990244 161.342439-64.312195h32.842927c37.213659 54.321951 161.342439 64.312195 161.342439 64.312195 176.452683 5.74439 173.705366-77.299512 173.705366-77.299512 6.868293-74.302439-74.427317-103.02439-74.427317-103.02439 45.45561-62.938537 70.306341-132.995122 70.306342-132.995122 110.142439 184.569756 99.028293-25.724878 99.028292-25.724878z m0 0" p-id="2828"></path></svg>