<?xml version="1.0" encoding="utf-8"?>
<!-- Generator: Adobe Illustrator 21.0.0, SVG Export Plug-In . SVG Version: 6.00 Build 0)  -->
<svg version="1.1" id="图层_1" xmlns="http://www.w3.org/2000/svg" xmlns:xlink="http://www.w3.org/1999/xlink" x="0px" y="0px"
	 viewBox="0 0 200 200" style="enable-background:new 0 0 200 200;" xml:space="preserve">
<style type="text/css">
	.st0{fill:#FFFFFF;}
</style>
<path class="st0" d="M184,39.6c6.6,16.3,3.5,35.7-9.5,48.9c-14.3,14.6-35.8,16.8-52.5,7.2l-12.1,13.5l8.6,8.9l5.2-5.3
	c2.6-2.7,6.9-2.7,9.6,0l41.8,43.2c2.6,2.7,2.6,7.1,0,9.8L156,185.2c-2.6,2.7-6.9,2.7-9.5,0L104.6,142c-2.6-2.7-2.6-7.1,0-9.8
	l4.7-4.8L101,119l-57.9,64.6c-5.3,5.4-13.8,5.4-19.1,0l-4.8-4.9c-5.3-5.4-5.3-14.1,0-19.5l65.9-56.4L41.4,58l-13.8,0l-16-26.3
	l12.9-13.2L50.8,35L51,48.8l44.3,45.4l12.9-11c-12.6-17.5-11.3-42.2,4.2-58.1c12.9-13.2,31.8-16.4,47.6-9.8l-28.4,28.6l23.9,24.4
	L184,39.6z M35.2,166.1c-2.6-2.7-6.9-2.7-9.6,0c-2.6,2.7-2.6,7.1,0,9.8c2.6,2.7,6.9,2.7,9.6,0C37.8,173.2,37.8,168.8,35.2,166.1z"/>
</svg>
